<svg xmlns="http://www.w3.org/2000/svg" xmlns:svg="http://www.w3.org/2000/svg" xmlns:xlink="http://www.w3.org/1999/xlink" style="enable-background:new 0 0 62.2 23.4" id="Livello_1" width="103" height="30" x="0" y="0" version="1.1" viewBox="0 0 62.2 23.4" xml:space="preserve"><metadata id="metadata27"/><style id="style2" type="text/css">.st0,.st1{display:none}.st1{fill:#111}.st2{fill:#4988ca}.st3{enable-background:new}.st4{fill:#fff}</style><g id="Livello_2_1_" class="st0"><image id="image4" width="1200" height="630" transform="matrix(0.1165,0,0,0.1165,-39.4487,-16.5124)" xlink:href="open_graph.jpg" style="display:inline;overflow:visible;enable-background:new"/></g><path style="display:none;fill:#111" id="path7" d="M 26.2,19.2 H 24.1 V 18 c -0.8,0.9 -1.5,1.4 -2.2,1.4 -0.7,0 -1.1,-0.3 -1.3,-0.9 -0.1,-0.4 -0.2,-0.9 -0.2,-1.7 v -9 h 2.1 v 9.3 c 0,0.3 0.2,0.4 0.5,0.4 0.4,0 0.8,-0.4 1.2,-1 V 7.8 h 2.1 L 26.2,19.2 M 18.7,11.5 C 18.7,10.3 18.5,9.4 18,8.8 17.4,8 16.5,7.7 15.6,7.7 c -1,0 -1.8,0.3 -2.4,1.1 -0.4,0.6 -0.7,1.5 -0.7,2.7 v 4.1 c 0,1.2 0.2,2 0.6,2.6 0.6,0.8 1.5,1.2 2.4,1.2 0.9,0 1.8,-0.4 2.4,-1.2 0.4,-0.6 0.6,-1.4 0.6,-2.6 z m -2.1,4.3 c 0.1,1.1 -0.2,1.7 -0.9,1.7 -0.7,0 -1,-0.6 -0.9,-1.7 v -4.5 c -0.1,-1.1 0.2,-1.7 0.9,-1.7 0.6,0 1,0.5 0.9,1.7 z M 10.3,13 v 6.2 H 8.1 V 13 C 8.1,13 5.8,5.4 5.3,3.9 h 2.3 l 1.6,6 1.6,-6 h 2.3 L 10.3,13" class="st1"/><path style="fill:#363636;stroke-width:.94999999;fill-opacity:1" id="path11-6" d="m 60.960401,5.4325002 c 0,0 -0.285,-2.185 -1.329999,-3.135 -1.235,-1.33000001 -2.66,-1.33000001 -3.230001,-1.33000001 -4.559999,-0.285 -11.4,-0.285 -11.4,-0.285 v 0 c 0,0 -6.84,0 -11.4,0.285 -0.665001,0.095 -1.995,0.095 -3.23,1.33000001 -0.95,0.95 -1.33,3.135 -1.33,3.135 0,0 -0.285,2.565 -0.285,5.1300008 V 12.9375 c 0,2.565 0.285,5.13 0.285,5.13 0,0 0.285,2.185 1.33,3.135 1.235,1.235 2.85,1.235 3.61,1.33 2.565001,0.285 11.02,0.285 11.02,0.285 0,0 6.840001,0 11.4,-0.285 0.665001,-0.095 1.995001,-0.095 3.230001,-1.33 0.95,-0.95 1.329999,-3.135 1.329999,-3.135 0,0 0.285,-2.565 0.285,-5.13 v -2.47 c 0.095,-2.3749998 -0.285,-5.0349998 -0.285,-5.0349998 z" class="st2"/><path style="fill:#4988ca" id="path9" d="m 48.6,9.5 c -0.3,0 -0.7,0.2 -1.1,0.5 v 7 c 0.3,0.3 0.7,0.5 1.1,0.5 0.6,0 0.9,-0.4 0.9,-1.6 v -5 c 0,-1 -0.3,-1.4 -0.9,-1.4 m 8.5,1.4 c 0,-1.1 -0.3,-1.4 -1,-1.4 -0.7,0 -1,0.3 -1,1.4 v 1.3 H 57 l 0.1,-1.3" class="st2"/><path style="fill:#4988ca" id="path11" d="m 61.8,5.1 c 0,0 -0.3,-2.3 -1.4,-3.3 C 59.1,0.4 57.6,0.4 57,0.4 52.2,0.1 45,0.1 45,0.1 v 0 c 0,0 -7.2,0 -12,0.3 -0.7,0.1 -2.1,0.1 -3.4,1.4 -1,1 -1.4,3.3 -1.4,3.3 0,0 -0.3,2.7 -0.3,5.4 V 13 c 0,2.7 0.3,5.4 0.3,5.4 0,0 0.3,2.3 1.4,3.3 1.3,1.3 3,1.3 3.8,1.4 2.7,0.3 11.6,0.3 11.6,0.3 0,0 7.2,0 12,-0.3 0.7,-0.1 2.1,-0.1 3.4,-1.4 1,-1 1.4,-3.3 1.4,-3.3 0,0 0.3,-2.7 0.3,-5.4 V 10.4 C 62.2,7.9 61.8,5.1 61.8,5.1 Z M 35.5,19.2 H 33.2 V 6.2 H 30.8 V 4 H 38 v 2.2 h -2.5 z m 8.2,0 H 41.5 V 18 c -0.8,0.9 -1.5,1.4 -2.3,1.4 -0.7,0 -1.1,-0.3 -1.4,-0.9 -0.1,-0.4 -0.2,-0.9 -0.2,-1.7 V 7.9 h 2.2 v 9.2 c 0.1,0.3 0.2,0.4 0.5,0.4 0.4,0 0.8,-0.4 1.3,-1 V 7.9 h 2.2 z m 7.9,-3.4 c 0,1 -0.1,1.8 -0.2,2.3 -0.3,0.8 -0.9,1.3 -1.7,1.3 -0.7,0 -1.5,-0.4 -2.2,-1.3 v 1.1 H 45.4 V 4 h 2.1 v 4.9 c 0.7,-0.8 1.4,-1.3 2.2,-1.3 0.8,0 1.4,0.5 1.6,1.3 0.2,0.5 0.3,1.2 0.3,2.3 0,0.1 0,4.6 0,4.6 z m 4.6,1.6 c 0.5,0 0.8,-0.3 0.9,-0.8 0,-0.1 0,-0.6 0,-1.4 h 2.2 v 0.3 c 0,0.7 -0.1,1.1 -0.1,1.3 -0.1,0.5 -0.2,0.9 -0.5,1.2 -0.6,0.8 -1.4,1.2 -2.5,1.2 -1.1,0 -1.9,-0.4 -2.5,-1.2 C 53.3,17.4 53,16.6 53,15.4 v -4 c 0,-1.2 0.3,-2.1 0.7,-2.7 0.6,-0.8 1.4,-1.2 2.5,-1.2 1.1,0 1.9,0.4 2.5,1.2 0.4,0.6 0.7,1.5 0.7,2.7 v 2.3 h -4.1 v 2 c -0.1,1.2 0.2,1.7 0.9,1.7 z" class="st2"/><g style="enable-background:new" id="g19" class="st3"><path style="fill:#fff" id="path13" d="M 0.1,19.2 V 4 h 4 C 5.5,4 6.6,4.6 7.5,5.8 8.4,7 8.9,8.5 8.9,10.4 V 13 c 0,1.9 -0.4,3.4 -1.3,4.5 -0.9,1.1 -2,1.8 -3.4,1.8 H 0.1 Z M 2.7,6.4 V 16.8 H 4 c 0.7,0 1.3,-0.4 1.7,-1.1 C 6.1,15 6.3,14 6.3,12.8 V 10.2 C 6.3,9 6.1,8.1 5.7,7.4 5.3,6.8 4.7,6.4 4,6.4 Z" class="st4"/><path style="fill:#fff" id="path15" d="m 14.3,19.5 c -1.2,0 -2.2,-0.5 -3,-1.4 C 10.6,17.2 10.2,16 10.2,14.6 V 13 c 0,-1.5 0.3,-2.8 1,-3.7 0.7,-1 1.6,-1.5 2.8,-1.5 1.2,0 2.1,0.4 2.7,1.3 0.6,0.9 1,2.1 1,3.6 v 1.8 h -4.9 v 0 c 0,0.7 0.1,1.4 0.4,1.8 0.3,0.5 0.7,0.7 1.3,0.7 0.5,0 0.9,-0.1 1.2,-0.2 0.3,-0.1 0.7,-0.3 1.1,-0.6 l 0.7,1.9 c -0.3,0.4 -0.8,0.7 -1.4,0.9 -0.6,0.2 -1.1,0.5 -1.8,0.5 z m -0.2,-9.4 c -0.4,0 -0.7,0.2 -0.9,0.6 -0.2,0.4 -0.3,1 -0.3,1.7 h 2.3 V 12 c 0,-0.6 -0.1,-1.1 -0.3,-1.5 -0.1,-0.2 -0.4,-0.4 -0.8,-0.4 z" class="st4"/><path style="fill:#fff" id="path17" d="m 22.2,15 0.1,0.9 h 0.1 L 22.5,15 23.6,8 h 2.7 L 23.5,19.3 H 21 L 18.3,7.9 H 21 Z" class="st4"/></g></svg>